<svg xmlns="http://www.w3.org/2000/svg" width="8" height="16" viewBox="0 0 8 16">
  <defs>
    <style>
      .cls-1 {
        fill: #fff;
        fill-rule: evenodd;
      }
    </style>
  </defs>
  <path id="Facebook" class="cls-1" d="M484,1182.3h1.432v8.69h3.18v-8.69h2.246l0.61-2.8h-2.988a2.258,2.258,0,0,1,.21-1.61,1.684,1.684,0,0,1,1.163-.39,3.023,3.023,0,0,1,1.5.61l0.643-2.47a8.581,8.581,0,0,0-2.657-.64,4.6,4.6,0,0,0-2.249.49,2.734,2.734,0,0,0-1.2,1.43,4.992,4.992,0,0,0-.368,2.21v0.37h-1.476Z" transform="translate(-484 -1175)"/>
</svg>
