<svg xmlns="http://www.w3.org/2000/svg" width="65" height="19" viewBox="0 0 65 19">
  <defs>
    <style>
      .cls-1 {
        fill: #fff;
        fill-rule: evenodd;
      }
    </style>
  </defs>
  <path id="Фигура_19_копия_4" data-name="Фигура 19 копия 4" class="cls-1" d="M440.368,556.121c4.908,3.631,19.3,4.11,27.55-3.529a24.951,24.951,0,0,0,17.31,2.516c8.021-1.707,16.77-7.453,16.77-7.453s-13.394,5.766-21.463,6.054c-3.97.141-7.286-1.265-10.465-3.116,0.887-.956,2.772-3.613,2.763-6.109-0.01-2.7-2.1-4.826-4.578-4.439-6.186.964-2.838,8.646,2.157,5.706,0.125,1.269-1.423,2.643-2.565,3.479a67.625,67.625,0,0,0-7.753-4.585c-7.4-3.433-15.086-3.126-19.555-.282C436.291,547.067,435.432,552.47,440.368,556.121Zm10.089-10.349c6.539,0.308,8.547,2.172,14.861,5.519a15.42,15.42,0,0,1-3.758,2.115c-0.127.05-.236,0.1-0.338,0.15-3.072,1.183-6.8,1.665-11.991,1.465C435.24,554.483,434.858,545.037,450.457,545.772ZM475.142,559c-12.323-2.422-16.348-9.956-27.655-9.787C458.966,552.657,462.582,558.882,475.142,559Z" transform="translate(-437 -540)"/>
</svg>
