<svg xmlns="http://www.w3.org/2000/svg" width="65" height="19.344" viewBox="0 0 65 19.344">
  <defs>
    <style>
      .cls-1 {
        fill: #fff;
        fill-rule: evenodd;
      }
    </style>
  </defs>
  <path id="Фигура_19_копия_3" data-name="Фигура 19 копия 3" class="cls-1" d="M158.632,556.413c-4.909,3.7-19.3,4.184-27.55-3.593a24.56,24.56,0,0,1-17.31,2.561c-8.021-1.738-16.77-7.588-16.77-7.588s13.394,5.87,21.463,6.163c3.97,0.145,7.286-1.287,10.465-3.171-0.887-.974-2.773-3.679-2.763-6.22,0.01-2.75,2.095-4.913,4.578-4.519,6.186,0.982,2.838,8.8-2.157,5.809-0.125,1.292,1.423,2.691,2.564,3.542a67.444,67.444,0,0,1,7.754-4.668c7.405-3.5,15.086-3.183,19.555-.287C162.709,547.2,163.568,552.7,158.632,556.413Zm-10.089-10.536c-6.539.313-8.547,2.211-14.861,5.618a15.332,15.332,0,0,0,3.758,2.154c0.127,0.05.236,0.1,0.338,0.152,3.072,1.2,6.8,1.695,11.991,1.492C163.76,554.745,164.142,545.128,148.543,545.877ZM123.858,559.34c12.322-2.466,16.347-10.137,27.655-9.964C140.034,552.886,136.418,559.223,123.858,559.34Z" transform="translate(-97 -540)"/>
</svg>
