<svg xmlns="http://www.w3.org/2000/svg" width="20" height="20" viewBox="0 0 20 20">
  <defs>
    <style>
      .cls-1 {
        fill: #fff;
        fill-rule: evenodd;
      }
    </style>
  </defs>
  <path id="inst" class="cls-1" d="M385.649,1194h-11.28a4.294,4.294,0,0,1-4.366-4.21V1178.2a4.294,4.294,0,0,1,4.366-4.21h11.28a4.294,4.294,0,0,1,4.366,4.21v11.59A4.294,4.294,0,0,1,385.649,1194Zm-5.64-14.74a5.093,5.093,0,1,0,5.276,5.09A5.18,5.18,0,0,0,380.009,1179.26ZM388,1177a1.3,1.3,0,0,0-1-1h-1a1.3,1.3,0,0,0-1,1v1a1.3,1.3,0,0,0,1,1h1a1.3,1.3,0,0,0,1-1v-1Zm-12.985-4.99h0.97v6.98h-0.97v-6.98ZM373,1172h1v7h-1v-7Zm-2,1h1v6h-1v-6Zm-3,8h23v1H368v-1Zm12.057-.44a3.965,3.965,0,1,1-3.921,3.97A3.947,3.947,0,0,1,380.057,1180.56Zm0,1.04a2.925,2.925,0,1,1-2.9,2.93A2.912,2.912,0,0,1,380.057,1181.6Z" transform="translate(-370 -1174)"/>
</svg>
