<svg xmlns="http://www.w3.org/2000/svg" width="18.407" height="18.4" viewBox="0 0 18.407 18.4">
  <defs>
    <style>
      .cls-1 {
        fill: #fff;
        fill-rule: evenodd;
      }
    </style>
  </defs>
  <path id="mail" class="cls-1" d="M348.493,1189.64a2,2,0,0,1-2.288-1.84,5.012,5.012,0,0,1-3.219,1.15,5.085,5.085,0,0,1,0-10.17,4.85,4.85,0,0,1,3.168,1.12v-0.07a0.953,0.953,0,0,1,.972-0.96,0.989,0.989,0,0,1,.937,1.04v3.16a1.118,1.118,0,0,1-.025.23,5.377,5.377,0,0,1,.03.56v3.45a0.377,0.377,0,0,0,.426.43c1.206,0,1.809-1.29,1.809-3.88a6.976,6.976,0,0,0-2.146-5.17,7.567,7.567,0,0,0-2.359-1.61,7.414,7.414,0,0,0-8,1.61,7.33,7.33,0,0,0,5.188,12.5,7.421,7.421,0,0,0,3.015-.62,0.9,0.9,0,0,1,.443-0.13,0.919,0.919,0,0,1,.67.28,0.98,0.98,0,0,1,.1,1.23,0.783,0.783,0,0,1-.431.33,9.092,9.092,0,0,1-3.8.8,9.21,9.21,0,1,1,9.2-9.22Q352.191,1189.635,348.493,1189.64Zm-3.255-8.01a3.151,3.151,0,0,0-1.011-.69,3.208,3.208,0,0,0-2.483,0,3.172,3.172,0,0,0-1.015.67,3.251,3.251,0,0,0-.683,1.01,3.19,3.19,0,0,0,0,2.49,3.251,3.251,0,0,0,.683,1.01,3.346,3.346,0,0,0,1.015.67,3.074,3.074,0,0,0,1.242.25,3.246,3.246,0,0,0,1.241-.25,3.151,3.151,0,0,0,1.011-.69,3.328,3.328,0,0,0,.674-1.01,3.073,3.073,0,0,0,.249-1.23,3.026,3.026,0,0,0-.249-1.22A3.328,3.328,0,0,0,345.238,1181.63Z" transform="translate(-333.781 -1174.66)"/>
</svg>
