<svg xmlns="http://www.w3.org/2000/svg" width="87" height="73" viewBox="0 0 87 73">
  <defs>
    <style>
      .cls-1 {
        fill: #fff;
        fill-opacity: 0;
        stroke: #454545;
        stroke-linejoin: round;
        stroke-width: 2px;
        fill-rule: evenodd;
      }
    </style>
  </defs>
  <path id="service2" class="cls-1" d="M867.621,2324.13c-11.358-3.07-10.93-10.49,2.855-20.14,14.392-10.08,24.375-23.43,32.41-32.51s17.97-13.95,24.907-12.07,2.948,0.79,7.448,2.01c6.2,1.68,4.285,12.62-2.407,10.81-5.426-1.47-5.4-8.42-5.4-8.42s-2.87,1.35-10.973,12.58c-6.731,9.32-10.353,19.29-18.01,31.54C889.064,2322.93,878.473,2327.07,867.621,2324.13Zm0,0c-11.358-3.07-10.93-10.49,2.855-20.14,14.392-10.08,24.375-23.43,32.41-32.51s17.97-13.95,24.907-12.07,2.948,0.79,7.448,2.01c6.2,1.68,4.285,12.62-2.407,10.81-5.426-1.47-5.4-8.42-5.4-8.42s-2.87,1.35-10.973,12.58c-6.731,9.32-10.353,19.29-18.01,31.54C889.064,2322.93,878.473,2327.07,867.621,2324.13Zm59.766-60.28s3.577-3.59,7.85-2.43A5.825,5.825,0,0,1,938,2263s-4.687-.27-7,1a28.931,28.931,0,0,0-6,5Z" transform="translate(-856 -2256)"/>
</svg>
