<svg xmlns="http://www.w3.org/2000/svg" width="116.25" height="54" viewBox="0 0 116.25 54">
  <defs>
    <style>
      .cls-1 {
        fill: #fff;
        stroke: #454545;
        stroke-linejoin: round;
        stroke-width: 2px;
        fill-rule: evenodd;
      }
    </style>
  </defs>
  <path id="service1" class="cls-1" d="M479.948,2290l65.165-1,16.008,6s3.694,1.84,3.24,4.59c-0.538,3.26-1.06,6.41-1.06,6.41s-1.2,6-5.993,6h-83a2.476,2.476,0,0,1-2.5-3l2.481-15C474.56,2292.34,478.291,2290,479.948,2290Zm2.135-25h32c10.662,0,29.841,21.69,32.7,26l-2.977,18c-0.274,1.66-27.84,3-29.5,3h-40a2.476,2.476,0,0,1-2.5-3l6.782-41A3.679,3.679,0,0,1,482.083,2265Zm66.045,36a7.432,7.432,0,0,1,7.511,9l-2.15,13A11.05,11.05,0,0,1,543,2332a7.432,7.432,0,0,1-7.511-9l2.15-13A11.05,11.05,0,0,1,548.128,2301Zm-56,0a7.432,7.432,0,0,1,7.511,9l-2.15,13A11.05,11.05,0,0,1,487,2332a7.432,7.432,0,0,1-7.511-9l2.15-13A11.05,11.05,0,0,1,492.128,2301Zm-0.331,2a5.779,5.779,0,0,1,5.842,7,8.589,8.589,0,0,1-8.158,7,5.779,5.779,0,0,1-5.842-7A8.59,8.59,0,0,1,491.8,2303Zm56,0a5.779,5.779,0,0,1,5.842,7,8.589,8.589,0,0,1-8.158,7,5.779,5.779,0,0,1-5.842-7A8.59,8.59,0,0,1,547.8,2303Zm-12.849-13h-23l2.15-13h10a78.973,78.973,0,0,1,7.206,6.35c1.522,1.56,2.9,3.15,4,4.48Zm-44.143,19a0.826,0.826,0,0,1,.834,1,1.229,1.229,0,0,1-1.165,1,0.827,0.827,0,0,1-.835-1A1.231,1.231,0,0,1,490.805,2309Zm56,0a0.826,0.826,0,0,1,.834,1,1.229,1.229,0,0,1-1.165,1,0.827,0.827,0,0,1-.835-1A1.231,1.231,0,0,1,546.8,2309ZM455,2265h17a0.843,0.843,0,0,1,.852,1,1.2,1.2,0,0,1-1.148,1h-17a0.842,0.842,0,0,1-.852-1A1.2,1.2,0,0,1,455,2265Zm-1.778,12h17a0.842,0.842,0,0,1,.852,1,1.2,1.2,0,0,1-1.148,1h-17a0.843,0.843,0,0,1-.852-1A1.2,1.2,0,0,1,453.222,2277Zm-1.926,13h17a0.842,0.842,0,0,1,.852,1,1.2,1.2,0,0,1-1.148,1H451a0.843,0.843,0,0,1-.852-1A1.2,1.2,0,0,1,451.3,2290Z" transform="translate(-449.156 -2264)"/>
</svg>
