<svg xmlns="http://www.w3.org/2000/svg" width="76" height="73" viewBox="0 0 76 73">
  <defs>
    <style>
      .cls-1 {
        fill: #fff;
        stroke: #454545;
        stroke-linejoin: round;
        stroke-width: 2px;
        fill-rule: evenodd;
      }
    </style>
  </defs>
  <path id="service3" class="cls-1" d="M1272.22,2321.96l-7.81.03a4.141,4.141,0,0,1-4.03-3.84v-0.27c0-2.12,1.3-3.91,3.24-3.91h2.45c-0.09-.57.03-1.39-0.06-1.99h-6.05a4.476,4.476,0,0,1-4.52-4.57v-0.34c0-2.68,2.07-3.99,4.52-3.99h3.11c-0.05-.69-0.02-1.32-0.06-2h-5.49a5,5,0,0,1-4.63-5.05v-0.34a4.6,4.6,0,0,1,4.63-4.61h5.51c0.02-.54-0.06-1.63-0.02-2.16h-2.3c-2.45,0-4.78-1.53-4.78-4.21v-0.34c0-2.68,2.33-4.28,4.78-4.28h14.42c6.05-.32,2.16-1.8,2.16-15.01,0-11.22,8.66-9.92,8.66-9.92v6.96c1.66,9.19,16.13,20.41,16.13,31.05v23.62C1296.02,2318.98,1292.02,2321.96,1272.22,2321.96Zm36.74-33.03h12.02a1,1,0,0,1,1,1v28.05a1,1,0,0,1-1,1h-12.02a1,1,0,0,1-1-1v-28.05A1,1,0,0,1,1308.96,2288.93Zm6.07,22.97a2.1,2.1,0,1,1-2.1,2.09A2.091,2.091,0,0,1,1315.03,2311.9Z" transform="translate(-1249 -2252)"/>
</svg>
