<svg xmlns="http://www.w3.org/2000/svg" width="20.031" height="16.03" viewBox="0 0 20.031 16.03">
  <defs>
    <style>
      .cls-1 {
        fill: #fff;
        fill-rule: evenodd;
      }
    </style>
  </defs>
  <path id="Twitter" class="cls-1" d="M406.17,1187.69a17.621,17.621,0,0,0,3.825,1,2.051,2.051,0,0,0,2.528-1.06,0.548,0.548,0,0,0-.123-0.79s-4.286-.52-3.96-1.36c0,0-.02-0.46.572-0.36,0,0,.827-1.68.5-1.89,0,0-.51-0.47-0.1-0.51,0,0,1.2.17,1.589,0.28,0,0,.265-0.1.02-0.3a1.431,1.431,0,0,1-.571-0.7s0.143-.37.8-0.07a0.619,0.619,0,0,0,.18-0.62s-0.551-.34-0.285-0.62c0,0,1.244-1.63,2.631.94,0,0,.347.49,0.388,0.02,0,0,1.7-5.04,3.921-5.44a1.129,1.129,0,0,0,.858-0.09,1,1,0,0,1,.823-0.04,0.32,0.32,0,0,0,.449.13s0.877-.37.612,0.23a4.109,4.109,0,0,1-1.146.99c-0.307.02-.246,0.45,0.02,0.5,0,0,3.672.27,3.672,3.13,0,0,.214.68,0.909-0.03a7.918,7.918,0,0,1,1.316-.73s0.286-.19.245,0.26a5.206,5.206,0,0,1-1.531,1.75s-0.47.62,0.2,0.49a4.031,4.031,0,0,0,.962-0.33s0.8-.41.428,0.32a10.154,10.154,0,0,1-2.043,1.13,0.337,0.337,0,0,0-.245.3s-0.225,7.78-9.575,7.78a10.817,10.817,0,0,1-7.744-3.76S405.7,1187.58,406.17,1187.69Z" transform="translate(-405.969 -1175.97)"/>
</svg>
