<svg xmlns="http://www.w3.org/2000/svg" width="11" height="14" viewBox="0 0 11 14">
  <defs>
    <style>
      .cls-1 {
        fill: #fff;
        fill-rule: evenodd;
      }
    </style>
  </defs>
  <path id="В" class="cls-1" d="M457.244,1184.44a3.8,3.8,0,0,0-2.042-1.12v-0.07a2.94,2.94,0,0,0,1.391-1.18,3.342,3.342,0,0,0,.5-1.82,3.289,3.289,0,0,0-.365-1.57,2.675,2.675,0,0,0-1.1-1.08,4.411,4.411,0,0,0-1.464-.49,16.319,16.319,0,0,0-2.3-.12h-4.859V1191h5.506a9.081,9.081,0,0,0,2.36-.26,4.792,4.792,0,0,0,1.7-.89,3.731,3.731,0,0,0,1.044-1.3,4.132,4.132,0,0,0,.388-1.84A3.245,3.245,0,0,0,457.244,1184.44Zm-3.815-2.68a1.133,1.133,0,0,1-.573.55,1.89,1.89,0,0,1-.735.19c-0.237.02-.651,0.02-1.242,0.02h-0.434v-2.96h0.24c0.616,0,1.079,0,1.39.01a2.169,2.169,0,0,1,.808.17,1.012,1.012,0,0,1,.532.52,1.574,1.574,0,0,1,.171.69A1.951,1.951,0,0,1,453.429,1181.76Zm0.808,5.79a1.384,1.384,0,0,1-.688.61,2.76,2.76,0,0,1-1.053.25c-0.346.02-.968,0.02-1.867,0.02h-0.184v-3.51h0.637c0.616,0,1.107.01,1.474,0.02a2.717,2.717,0,0,1,.863.13,1.57,1.57,0,0,1,.776.56,1.724,1.724,0,0,1,.259,1.02A1.844,1.844,0,0,1,454.237,1187.55Z" transform="translate(-447 -1177)"/>
</svg>
