<svg xmlns="http://www.w3.org/2000/svg" width="31.15" height="25.09" viewBox="0 0 31.15 25.09">
  <defs>
    <style>
      .cls-1 {
        fill: #fff;
        fill-rule: evenodd;
      }
    </style>
  </defs>
  <path id="Фигура_4_копия_5" data-name="Фигура 4 (копия) 5" class="cls-1" d="M1230.37,2803.46a12.217,12.217,0,0,1-3.63,8.87,11.425,11.425,0,0,1-8.59,3.69,11.922,11.922,0,0,1-8.83-3.71,12.482,12.482,0,0,1,0-17.68,11.95,11.95,0,0,1,8.83-3.7h18.67C1228.44,2793.9,1230.37,2803.46,1230.37,2803.46Zm-1.32,0a12.286,12.286,0,0,1-3.25,8.07,10.108,10.108,0,0,1-7.67,3.36,10.619,10.619,0,0,1-7.91-3.38,11.494,11.494,0,0,1,0-16.08,10.637,10.637,0,0,1,7.91-3.36h14.67C1228.01,2794.79,1229.05,2801.61,1229.05,2803.46Zm3.33-11.81c0.24,0.28-.12.59,0.17,0.94-8.92,2.28-17.55,7.7-22.4,19.46-0.29-.37-0.55-0.67-0.78-0.93,4.51-11.25,12.98-17.05,23.01-19.47h0Z" transform="translate(-1205.66 -2790.94)"/>
</svg>
